<?xml version="1.0" standalone="no"?>
<!DOCTYPE svg PUBLIC "-//W3C//DTD SVG 1.1//EN" "http://www.w3.org/Graphics/SVG/1.1/DTD/svg11.dtd" >
<svg xmlns="http://www.w3.org/2000/svg">
<metadata>
This is a custom SVG webfont generated by Font Squirrel.
Designer    : Alessio Atzeni
Foundry     : Alessio Atzeni
Foundry URL : http://www.alessioatzeni.com/meteocons/
</metadata>
<defs>
<font id="MeteoconsRegular" horiz-adv-x="2048" >
<font-face units-per-em="2048" ascent="1920" descent="-128" />
<missing-glyph horiz-adv-x="1024" />
<glyph horiz-adv-x="0" />
<glyph />
<glyph unicode=" "  horiz-adv-x="1024" />
<glyph unicode="&#x09;" horiz-adv-x="1024" />
<glyph unicode="&#xa0;" horiz-adv-x="1024" />
<glyph unicode="!" d="M0 830q0 26 18 44t46 18h512q28 0 46 -18t18 -44q0 -27 -18.5 -46.5t-45.5 -19.5h-512q-27 0 -45.5 19.5t-18.5 46.5zM0 1086q0 26 18 44t46 18h256q28 0 46 -18t18 -44q0 -27 -18.5 -46.5t-45.5 -19.5h-256q-27 0 -45.5 19.5t-18.5 46.5zM128 1342q0 26 18 44t46 18h256 q28 0 46 -18t18 -44q0 -27 -18.5 -46.5t-45.5 -19.5h-256q-27 0 -45.5 19.5t-18.5 46.5zM556 1240q0 159 110 274t270 122q152 156 366 156t366 -156q160 -7 270 -122t110 -274q0 -168 -116 -284t-284 -116q-36 0 -68 4q-128 -80 -278 -80t-278 80q-32 -4 -72 -4 q-164 0 -280 116t-116 284zM896 384q0 71 128 256l32 -48q36 -55 64 -112q32 -66 32 -96q0 -52 -38 -90t-90 -38t-90 38t-38 90zM1408 128q0 71 128 256l32 -48q36 -55 64 -112q32 -66 32 -96q0 -52 -38 -90t-90 -38t-90 38t-38 90z" />
<glyph unicode="&#x22;" d="M0 1216q0 184 132 316t316 132q36 0 64 -4q89 125 224 192q138 68 288 68t288 -68q135 -67 224 -192q28 4 64 4q184 0 316 -132t132 -316t-132 -316t-316 -132q-85 0 -160 28q-180 -156 -416 -156t-416 156q-75 -28 -160 -28q-184 0 -316 132t-132 316zM712 102 q8 30 32 42l72 44q-7 38 0 76l-72 40q-24 16 -32 43.5t6 54.5q14 26 42 34t56 -8l72 -44q28 28 64 40v84q0 28 22 50t50 22t50 -22t22 -50v-84q36 -12 64 -40l72 44q28 16 56 8t42 -34q14 -27 6 -54.5t-32 -43.5l-72 -40q7 -38 0 -76l72 -44q24 -12 32 -42t-6 -54 q-15 -25 -42.5 -32t-55.5 8l-72 40q-29 -24 -64 -36v-84q0 -31 -21.5 -51.5t-50.5 -20.5t-50.5 20.5t-21.5 51.5v84q-35 12 -64 36l-72 -40q-28 -15 -55.5 -8t-42.5 32q-14 24 -6 54zM952 226q0 -30 22 -50t50 -20t48 20q24 20 24 50t-22 50t-50 20t-50 -20t-22 -50z" />
<glyph unicode="#" d="M0 1216q0 184 132 316t316 132q36 0 64 -4q89 125 224 192q138 68 288 68t288 -68q135 -67 224 -192q28 4 64 4q184 0 316 -132t132 -316t-132 -316t-316 -132q-85 0 -160 28q-180 -156 -416 -156t-416 156q-75 -28 -160 -28q-184 0 -316 132t-132 316zM122 412 q-10 40 30 52l48 12q0 24 12 44l-36 36q-28 28 0 58q29 30 60 2l36 -36q19 7 44 12l12 48q12 40 52 28t28 -52l-12 -48q10 -6 16 -12q9 -9 16 -20l48 16q40 7 52 -32q12 -40 -32 -52l-48 -12q0 -24 -12 -44l36 -36q32 -29 2 -58q-30 -30 -62 -2l-32 36q-23 -7 -44 -12 l-16 -48q-8 -41 -50 -30q-42 10 -30 54l12 48q-15 7 -32 32l-48 -16q-40 -7 -50 32zM294 436q30 -28 60 0q29 28 -2 56q-29 32 -58 2q-30 -30 0 -58zM712 102q8 30 32 42l72 44q-7 38 0 76l-72 40q-24 16 -32 43.5t6 54.5q14 26 42 34t56 -8l72 -44q28 28 64 40v84 q0 28 22 50t50 22t50 -22t22 -50v-84q36 -12 64 -40l72 44q28 16 56 8t42 -34q14 -27 6 -54.5t-32 -43.5l-72 -40q7 -38 0 -76l72 -44q24 -12 32 -42t-6 -54q-15 -25 -42.5 -32t-55.5 8l-72 40q-29 -24 -64 -36v-84q0 -31 -21.5 -51.5t-50.5 -20.5t-50.5 20.5t-21.5 51.5v84 q-35 12 -64 36l-72 -40q-28 -15 -55.5 -8t-42.5 32q-14 24 -6 54zM952 226q0 -30 22 -50t50 -20t48 20q24 20 24 50t-22 50t-50 20t-50 -20t-22 -50zM1520 392q12 40 52 28l48 -12q7 11 16 20q6 6 16 12l-12 48q-12 40 28 52t52 -28l12 -48q25 -5 44 -12l36 36q31 28 60 -2 q28 -30 0 -58l-36 -36q12 -20 12 -44l48 -12q40 -12 30 -52q-10 -39 -50 -32l-48 16q-17 -25 -32 -32l12 -48q12 -44 -30 -54q-42 -11 -50 30l-16 48q-25 5 -44 12l-32 -36q-32 -28 -62 2q-30 29 2 58l36 36q-12 19 -12 44l-48 12q-44 12 -32 52zM1694 308q30 -28 60 0 q29 28 -2 56q-29 32 -58 2q-30 -30 0 -58z" />
<glyph unicode="$" d="M0 1216q0 184 132 316t316 132q36 0 64 -4q89 125 224 192q138 68 288 68t288 -68q135 -67 224 -192q28 4 64 4q184 0 316 -132t132 -316t-132 -316t-316 -132q-85 0 -160 28q-180 -156 -416 -156t-416 156q-75 -28 -160 -28q-184 0 -316 132t-132 316zM256 512 q0 52 38 90t90 38t88 -40q40 -36 40 -88t-38 -90t-90 -38t-90 38t-38 90zM512 0q0 52 38 90t90 38t88 -40q40 -36 40 -88t-38 -90t-90 -38t-90 38t-38 90zM896 384q0 52 38 90t90 38t88 -40q40 -36 40 -88t-38 -90t-90 -38t-90 38t-38 90zM1280 0q0 52 38 90t90 38t88 -40 q40 -36 40 -88t-38 -90t-90 -38t-90 38t-38 90zM1536 512q0 52 38 90t90 38t88 -40q40 -36 40 -88t-38 -90t-90 -38t-90 38t-38 90z" />
<glyph unicode="%" d="M4 658q0 186 132 318t316 132q30 0 64 -8q0 2 2 6t2 6q-4 32 -4 60q0 143 104 250q103 106 252 106q17 0 28 -4q148 184 384 184t384 -184q11 4 28 4q149 0 252 -106q104 -107 104 -250q0 -140 -96 -240q96 -124 96 -272q0 -188 -132 -318q-131 -130 -316 -130 q-85 0 -160 28q-180 -156 -416 -156t-416 156q-75 -28 -160 -28q-185 0 -316 130q-132 130 -132 316z" />
<glyph unicode="&#x26;" d="M0 868q0 184 132 316t316 132q36 0 64 -4q3 8 8 8q-8 38 -8 60q0 148 104 252t252 104h28q148 184 384 184t384 -184h28q148 0 252 -104t104 -252q0 -136 -96 -240q96 -120 96 -272q0 -184 -132 -316t-316 -132q-85 0 -160 28q-167 -147 -396 -152l-20 -40l128 -128 l-384 -256l128 256l-128 128l92 60q-148 40 -252 132q-75 -28 -160 -28q-184 0 -316 132t-132 316z" />
<glyph unicode="'" d="M768 256q0 148 128 220v1176q0 59 38 100q37 40 90 40t90 -40q38 -41 38 -100v-1176q128 -72 128 -220q0 -104 -76 -180t-182 -76q-107 0 -180 76q-74 77 -74 180z" />
<glyph unicode="(" d="M0 896q0 424 300 724t724 300t724 -300t300 -724t-300 -724t-724 -300t-724 300t-300 724zM256 896q0 -316 226 -542t542 -226t540 224q228 228 228 544t-226 542t-542 226t-542 -226t-226 -542zM640 512l256 512l512 256l-256 -512z" />
<glyph unicode=")" d="M208 548v704h128l164 -240l132 -208h4v448h140v-704h-128l-176 264l-120 180h-4v-444h-140zM824 504l260 784h104l-260 -784h-104zM1204 548l248 704h144l244 -704h-152l-44 144h-244l-48 -144h-148zM1436 808h172l-28 92l-56 184h-4l-56 -180z" />
<glyph unicode="*" d="M580 1048q-26 58 0 119t84 81q59 25 121 -0.5t87 -83.5q12 -24 12 -56t-12 -60q-24 -55 -86 -80q-62 -24 -122 0t-84 80zM656 1108q0 -28 20 -48t50 -20t50 20t20 48t-20 48t-50 20t-50 -20t-20 -48zM996 760v264q0 105 81.5 166.5t186.5 61.5q141 0 216 -68l-68 -108 q-56 48 -144 48q-53 0 -92.5 -31t-39.5 -97v-204q0 -66 39.5 -97t92.5 -31q79 0 148 48l64 -108q-89 -72 -212 -72q-108 0 -190 62t-82 166z" />
<glyph unicode="+" d="M565.5 1124.5q4.5 39.5 31 73t65.5 46.5q62 24 122 0t84 -80q25 -57 0 -116t-84 -84q-28 -12 -62 -12t-62 12q-58 25 -84 82q-15 39 -10.5 78.5zM652 1104q0 -28 20 -48t50 -20t50 20t20 48t-20 48t-50 20t-50 -20t-20 -48zM996 536v708h488v-128h-348v-164h296v-128 h-296v-288h-140z" />
<glyph unicode="0" d="M0 868q0 184 132 316t316 132q36 0 64 -4q3 8 8 8q-8 38 -8 60q0 148 104 252t252 104h28q148 184 384 184t384 -184h28q148 0 252 -104t104 -252q0 -136 -96 -240q96 -120 96 -272q0 -184 -132 -316t-316 -132q-82 0 -160 32q-82 -74 -188 -116l-72 72l24 48 q130 53 212 152q84 -60 184 -60q132 0 226 94t94 226q0 107 -68 196q-47 59 -114.5 91.5t-137.5 32.5l-52 -4q-37 -7 -68 -20q-67 127 -188 204q-119 76 -268 76q-212 0 -364 -156q-49 -49 -84 -112q-3 -7 -8 -12q-56 24 -120 24q-132 0 -226 -94t-94 -226t94 -226t226 -94 q100 0 184 60q43 -51 104 -92l-116 -76l-12 8q-75 -28 -160 -28q-184 0 -316 132t-132 316zM652 1452q168 120 372 120q150 0 288 -68q135 -67 224 -192q28 4 64 4q144 0 264 -84q56 65 56 148q0 96 -66 162t-162 66q-46 0 -88 -16q-44 92 -132 146t-192 54t-192 -54 t-132 -146q-42 16 -88 16q-75 0 -134 -44q-57 -43 -82 -112zM768 -128l128 384l-128 128l384 256l-128 -256l128 -128z" />
<glyph unicode="1" d="M192 896q0 28 18 46t46 18h128q28 0 46 -18t18 -46t-18 -46t-46 -18h-128q-28 0 -46 18t-18 46zM436 308q-44 44 0 92l92 88q44 44 88 0t0 -88l-88 -92q-48 -44 -92 0zM436 1392q-44 48 0 92t92 0l88 -92q44 -44 0 -88t-88 0zM576 896q0 184 132 316t316 132t316 -132 t132 -316t-132 -316t-316 -132t-316 132t-132 316zM960 128v128q0 28 18 46t46 18t46 -18t18 -46v-128q0 -28 -18 -46t-46 -18t-46 18t-18 46zM960 1536v128q0 28 18 46t46 18t46 -18t18 -46v-128q0 -28 -18 -46t-46 -18t-46 18t-18 46zM1430 488q46 44 90 0l92 -88 q44 -48 0 -92t-92 0l-88 92q-49 44 -2 88zM1430 1304q-47 44 2 88l88 92q48 44 92 0t0 -92l-92 -88q-44 -44 -90 0zM1600 896q0 28 18 46t46 18h128q28 0 46 -18t18 -46t-18 -46t-46 -18h-128q-28 0 -46 18t-18 46z" />
<glyph unicode="2" d="M588 910q0 186 132 318q73 68 168 104q-44 -122 -16 -248q29 -129 120 -220t220 -120q126 -28 248 16q-36 -95 -104 -168q-132 -132 -318 -132t-318 132t-132 318z" />
<glyph unicode="3" d="M0 448q0 180 126 310t306 138q-48 92 -48 192q0 184 132 316t316 132q183 0 314 -128q129 -126 134 -312q155 -67 256 -204q28 4 64 4q184 0 316 -132t132 -316t-132 -316t-316 -132q-85 0 -160 28q-180 -156 -416 -156t-416 156q-75 -28 -160 -28q-184 0 -316 132 t-132 316zM0 1088q0 28 18 46t46 18h128q28 0 46 -18t18 -46t-18 -46t-46 -18h-128q-28 0 -46 18t-18 46zM244 1584q-44 48 0 92t92 0l88 -92q44 -44 0 -88t-88 0zM512 1088q0 -77 40 -148q188 212 472 212q56 0 124 -12q-20 116 -108 192t-208 76q-132 0 -226 -94t-94 -226 zM768 1728v128q0 28 18 46t46 18t46 -18t18 -46v-128q0 -28 -18 -46t-46 -18t-46 18t-18 46zM1240 1496q-44 44 0 88l88 92q48 44 92 0t0 -92l-92 -88q-44 -44 -88 0zM1408 1088q0 28 18 46t46 18h128q28 0 46 -18t18 -46t-18 -46t-46 -18h-128q-28 0 -46 18t-18 46z" />
<glyph unicode="4" d="M0 448q0 184 132 316t316 132q36 0 64 -4q160 220 432 256q-36 125 -2 260q34 136 130 232q80 80 192 120q39 16 68 -14q28 -30 16 -66q-40 -107 -16 -214q24 -106 102 -186q79 -80 186 -104q109 -24 216 16q36 12 66 -16q30 -29 14 -68q-40 -112 -120 -192 q-16 -16 -56 -44q136 -43 222 -160q86 -116 86 -264q0 -184 -132 -316t-316 -132q-85 0 -160 28q-180 -156 -416 -156t-416 156q-75 -28 -160 -28q-184 0 -316 132t-132 316zM1060 1360q-24 -113 16 -212q275 -19 448 -240q133 32 212 132q-228 -12 -392 150 q-164 163 -148 390q-15 -11 -32 -28q-80 -80 -104 -192z" />
<glyph unicode="5" d="M0 832q0 184 132 316t316 132q36 0 64 -4q89 125 224 192q138 68 288 68t288 -68q135 -67 224 -192q28 4 64 4q184 0 316 -132t132 -316t-132 -316t-316 -132q-85 0 -160 28q-180 -156 -416 -156t-416 156q-75 -28 -160 -28q-184 0 -316 132t-132 316z" />
<glyph unicode="6" d="M0 1216q0 184 132 316t316 132q36 0 64 -4q89 125 224 192q138 68 288 68t288 -68q135 -67 224 -192q28 4 64 4q184 0 316 -132t132 -316t-132 -316t-316 -132q-85 0 -160 28q-155 -135 -372 -152l-44 -132l128 -128l-384 -384l128 384l-128 128l140 140 q-172 32 -300 144q-75 -28 -160 -28q-184 0 -316 132t-132 316z" />
<glyph unicode="7" d="M0 1088q0 184 132 316t316 132q36 0 64 -4q89 125 224 192q138 68 288 68t288 -68q135 -67 224 -192q28 4 64 4q184 0 316 -132t132 -316t-132 -316t-316 -132q-85 0 -160 28q-180 -156 -416 -156t-416 156q-75 -28 -160 -28q-184 0 -316 132t-132 316zM896 128 q0 71 128 256l32 -48q36 -55 64 -112q32 -66 32 -96q0 -52 -38 -90t-90 -38t-90 38t-38 90z" />
<glyph unicode="8" d="M0 1216q0 184 132 316t316 132q36 0 64 -4q89 125 224 192q138 68 288 68t288 -68q135 -67 224 -192q28 4 64 4q184 0 316 -132t132 -316t-132 -316t-316 -132q-85 0 -160 28q-180 -156 -416 -156t-416 156q-75 -28 -160 -28q-184 0 -316 132t-132 316zM384 384 q0 71 128 256l32 -48q36 -55 64 -112q32 -66 32 -96q0 -52 -38 -90t-90 -38t-90 38t-38 90zM900 0q0 71 128 256l32 -48q36 -55 64 -112q32 -66 32 -96q0 -52 -38 -90t-90 -38t-90 38t-38 90zM1408 128q0 71 128 256l32 -48q36 -55 64 -112q32 -66 32 -96q0 -52 -38 -90 t-90 -38t-90 38t-38 90z" />
<glyph unicode="9" d="M0 448q0 28 18 46t46 18h512q28 0 46 -18t18 -46t-18 -46t-46 -18h-512q-28 0 -46 18t-18 46zM0 704q0 28 18 46t46 18h256q28 0 46 -18t18 -46t-18 -46t-46 -18h-256q-28 0 -46 18t-18 46zM128 960q0 28 18 46t46 18h256q28 0 46 -18t18 -46t-18 -46t-46 -18h-256 q-28 0 -46 18t-18 46zM556 856q0 160 110 276q110 117 270 124q152 156 366 156t366 -156q160 -7 270 -124q110 -116 110 -276q0 -164 -116 -280t-284 -116q-36 0 -68 4q-128 -84 -278 -84t-278 84q-32 -4 -72 -4q-164 0 -280 116t-116 280z" />
<glyph unicode="A" d="M436 1200q-22 24 -22 47t22 45t45 22t47 -22l88 -92q22 -22 22 -44t-22 -44t-44 -22l-44 22zM576 576q0 28 18 46t46 18h768q28 0 46 -18t18 -46t-18 -46t-46 -18h-768q-28 0 -46 18t-18 46zM584 768q24 165 148 274q125 110 292 110t292 -110q124 -109 148 -274h-128 q-19 112 -108 184q-88 72 -204 72t-204 -72q-89 -72 -108 -184h-128zM704 320q0 28 18 46t46 18h512q28 0 46 -18t18 -46t-18 -46t-46 -18h-512q-28 0 -46 18t-18 46zM960 1344v128q0 28 18 46t46 18t46 -18t18 -46v-128q0 -28 -18 -46t-46 -18t-46 18t-18 46zM1432 1112 q-22 22 -22 44t22 44l88 92q24 22 47 22t45 -22t22 -45t-22 -47l-92 -88q-22 -22 -44 -22z" />
<glyph unicode="B" d="M192 896q0 28 18 46t46 18h128q28 0 46 -18t18 -46t-18 -46t-46 -18h-128q-28 0 -46 18t-18 46zM436 308q-22 22 -22 45t22 47l92 88q22 25 45 25l43 -23q22 -23 22 -45.5t-22 -44.5l-88 -92q-24 -22 -47 -22t-45 22zM436 1392q-22 24 -22 47t22 45t45 22t47 -22l88 -92 q22 -22 22 -44t-22 -44t-44 -22l-44 22zM576 896q0 184 132 316t316 132t316 -132t132 -316t-132 -316t-316 -132t-316 132t-132 316zM704 896q0 -132 94 -226t226 -94t224 92q96 96 96 228t-94 226t-226 94t-226 -94t-94 -226zM960 128v128q0 28 18 46t46 18t46 -18t18 -46 v-128q0 -28 -18 -46t-46 -18t-46 18t-18 46zM960 1536v128q0 28 18 46t46 18t46 -18t18 -46v-128q0 -28 -18 -46t-46 -18t-46 18t-18 46zM1432 400q-22 22 -22 44t22 44t44 22l44 -22l92 -88q22 -24 22 -47t-22 -45t-45 -22t-47 22zM1432 1304q-22 22 -22 44t22 44l88 92 q24 22 47 22t45 -22t22 -45t-22 -47l-92 -88q-22 -22 -44 -22zM1600 896q0 28 18 46t46 18h128q28 0 46 -18t18 -46t-18 -46t-46 -18h-128q-28 0 -46 18t-18 46z" />
<glyph unicode="C" d="M524 908q0 212 152 364q80 80 192 120q11 4 21 4q24 0 43.5 -20t19.5 -45q0 -11 -4 -23q-22 -62 -21 -126q0 -43 9 -86q24 -108 102 -186t186 -102q43 -10 86 -9q64 0 126 21q12 4 23 4q25 0 45 -20t20 -43q0 -10 -4 -21q-40 -112 -120 -192q-152 -152 -364 -152 t-362 150t-150 362zM652 910q0 -159 112 -274q111 -111 268 -111q13 0 26 1q175 11 278 146q-20 -1 -40 -1q-202 0 -349.5 147t-147.5 350q0 20 1 40q-21 -13 -36 -28q-112 -112 -112 -270z" />
<glyph unicode="D" d="M252 836q0 28 18 46t46 18h128q28 0 46 -18t18 -46t-18 -46t-46 -18h-128q-28 0 -46 18t-18 46zM496 248q-22 22 -22 45t22 47l92 88q22 25 45 25l43 -23q22 -23 22 -45.5t-22 -44.5l-88 -92q-24 -22 -47 -22t-45 22zM496 1332q-22 24 -22 47t22 45t45 22t47 -22l88 -92 q22 -22 22 -44t-22 -44t-44 -22l-44 22zM636 836q0 184 132 316t316 132q59 0 128 -20q69 20 128 20q184 0 316 -132t132 -316t-132 -316t-316 -132q-59 0 -128 20q-69 -20 -128 -20q-184 0 -316 132t-132 316zM764 836q0 -115 74 -204q73 -88 182 -108q-128 128 -128 312 t128 312q-109 -20 -182 -108q-74 -89 -74 -204zM1020 68v128q0 28 18 46t46 18t46 -18t18 -46v-128q0 -28 -18 -46t-46 -18t-46 18t-18 46zM1020 1476v128q0 28 18 46t46 18t46 -18t18 -46v-128q0 -28 -18 -46t-46 -18t-46 18t-18 46z" />
<glyph unicode="E" d="M124 708q0 28 22 46t54 18h344q-21 64 -28 128h-200q-28 0 -46 18t-18 46t18 46t46 18h200q7 64 28 128h-356q-28 0 -46 18t-18 46t18 46t46 18h416q79 115 206 186q125 70 274 70q221 0 382 -148q162 -149 186 -364h328q28 0 46 -18t18 -46t-18 -46t-46 -18h-328 q-7 -64 -28 -128h88q32 0 54 -18t22 -46t-22 -46t-54 -18h-148q-79 -115 -206 -186q-125 -70 -274 -70t-274 70q-127 71 -206 186h-404q-32 0 -54 18t-22 46zM644 900q8 -68 36 -128h808q28 60 36 128h-880zM644 1028h880q-24 165 -148 274q-125 110 -292 110 q-179 0 -312 -128h312q28 0 46 -18t18 -46t-18 -46t-46 -18h-404q-28 -60 -36 -128zM772 644q133 -128 312 -128t312 128h-624z" />
<glyph unicode="F" d="M252 576q0 28 24 46t60 18h984h20q80 0 136 -56t56 -136t-56 -136t-136 -56t-136 56t-56 136q0 32 12 64h-824q-36 0 -60 18t-24 46zM252 832q0 28 18 46t46 18h1228q-12 31 -12 64q0 80 56 136t136 56t136 -56t56 -136t-56 -136t-136 -56h-1408q-28 0 -46 18t-18 46z M252 1088q0 28 18 46t46 18h588q-12 32 -12 64q0 80 56 136t136 56t136 -56t56 -136t-56 -136t-136 -56h-768q-28 0 -46 18t-18 46z" />
<glyph unicode="G" d="M458 672q13 51 58 80l132 76q-8 34 -8 69t8 71l-132 72q-45 29 -58 80q-4 18 -4 35q0 33 16 63q25 46 78 58q17 4 34 4q33 0 62 -16l132 -76q57 44 120 68v152q0 52 38 90t90 38t90 -38t38 -90v-152q63 -24 120 -68l132 76q27 15 58 15q18 0 38 -5q52 -13 78 -58 q17 -29 17 -61q0 -17 -5 -35q-13 -51 -58 -80l-132 -76q8 -34 8 -68t-8 -68l132 -76q45 -29 58 -80q5 -18 5 -35q0 -32 -17 -61q-26 -45 -78 -58q-20 -5 -38 -5q-31 0 -58 15l-132 76q-54 -44 -120 -68v-152q0 -52 -38 -90t-90 -38t-90 38t-38 90v152q-63 24 -120 68 l-132 -76q-27 -15 -58 -15q-18 0 -38 5q-52 13 -78 58q-17 29 -17 61q0 17 5 35zM896 896q0 -52 36 -92q40 -36 92 -36t90 38t38 90t-38 90t-90 38t-90 -38t-38 -90z" />
<glyph unicode="H" d="M0 448q0 180 126 310t306 138q-48 92 -48 192q0 184 132 316t316 132q183 0 314 -128q129 -126 134 -312q155 -67 256 -204q28 4 64 4q184 0 316 -132t132 -316t-132 -316t-316 -132q-85 0 -160 28q-180 -156 -416 -156t-416 156q-75 -28 -160 -28q-184 0 -316 132 t-132 316zM0 1088q0 28 18 46t46 18h128q28 0 46 -18t18 -46t-18 -46t-46 -18h-128q-28 0 -46 18t-18 46zM128 448q0 -132 94 -226t226 -94q100 0 184 60q156 -188 392 -188t392 188q84 -60 184 -60q132 0 226 94t94 226t-94 226t-226 94q-64 0 -120 -24q-76 144 -220 220 q-57 32 -120 44q-58 16 -116 16q-236 0 -392 -184q-39 -47 -64 -96q-2 0 -32 8q-47 16 -88 16q-132 0 -226 -94t-94 -226zM244 1584q-22 24 -22 47t22 45t45 22t47 -22l88 -92q22 -22 22 -44t-22 -44t-44 -22l-44 22zM512 1088q0 -77 40 -148q188 212 472 212q56 0 124 -12 q-20 116 -108 192t-208 76q-132 0 -226 -94t-94 -226zM768 1728v128q0 28 18 46t46 18t46 -18t18 -46v-128q0 -28 -18 -46t-46 -18t-46 18t-18 46zM1240 1496q-22 22 -22 44t22 44l88 92q24 22 47 22t45 -22t22 -45t-22 -47l-92 -88q-22 -22 -44 -22zM1408 1088q0 28 18 46 t46 18h128q28 0 46 -18t18 -46t-18 -46t-46 -18h-128q-28 0 -46 18t-18 46z" />
<glyph unicode="I" d="M4 448q0 184 132 316t316 132q36 0 64 -4q160 220 432 256q-19 64 -19 131q0 63 17 129q34 136 130 232q80 80 192 120q14 6 26 6q23 0 42 -20q20 -21 20 -45q0 -10 -4 -21q-25 -67 -25 -134q0 -40 9 -80q24 -106 102 -186q79 -80 186 -104q41 -9 81 -9q68 0 135 25 q11 4 21 4q24 0 45 -20q20 -19 20 -42q0 -12 -6 -26q-40 -112 -120 -192q-16 -16 -56 -44q136 -43 222 -160q86 -116 86 -264q0 -184 -132 -316t-316 -132q-85 0 -160 28q-180 -156 -416 -156t-416 156q-75 -28 -160 -28q-184 0 -316 132t-132 316zM132 448q0 -132 94 -226 t226 -94q100 0 184 60q156 -188 392 -188t392 188q84 -60 184 -60q132 0 226 94t94 226t-94 226t-226 94q-64 0 -120 -24q-4 4 -10 14t-6 14q-53 81 -120 140q-78 59 -172 88q-72 24 -148 24q-28 0 -28 -4q-141 -5 -252 -80q-111 -76 -176 -196q-56 24 -120 24 q-132 0 -226 -94t-94 -226zM1064 1360q-9 -42 -9 -83q0 -67 25 -129q275 -19 448 -240q133 32 212 132q-16 -1 -31 -1q-208 0 -361 151q-149 149 -149 350q0 20 1 40q-15 -11 -32 -28q-80 -80 -104 -192z" />
<glyph unicode="J" d="M192 196q0 28 18 46t46 18h1536q28 0 46 -18t18 -46t-18 -46t-46 -18h-1536q-28 0 -46 18t-18 46zM192 452q0 28 18 46t46 18h1536q28 0 46 -18t18 -46t-18 -46t-46 -18h-1536q-28 0 -46 18t-18 46zM192 708q0 28 18 46t46 18h1536q28 0 46 -18t18 -46t-18 -46t-46 -18 h-1536q-28 0 -46 18t-18 46zM192 964q0 28 18 46t46 18h128q28 0 46 -18t18 -46t-18 -46t-46 -18h-128q-28 0 -46 18t-18 46zM436 1460q-22 24 -22 47t22 45t45 22t47 -22l88 -92q22 -22 22 -44t-22 -44t-44 -22l-44 22zM576 964q0 184 132 316t316 132t316 -132t132 -316 q0 -18 -8 -64h-128q8 34 8 64q0 132 -94 226t-226 94t-226 -94t-94 -226q0 -30 8 -64h-128q-8 46 -8 64zM960 1604v128q0 28 18 46t46 18t46 -18t18 -46v-128q0 -28 -18 -46t-46 -18t-46 18t-18 46zM1432 1372q-22 22 -22 44t22 44l88 92q24 22 47 22t45 -22t22 -45t-22 -47 l-92 -88q-22 -22 -44 -22zM1600 964q0 28 18 46t46 18h128q28 0 46 -18t18 -46t-18 -46t-46 -18h-128q-28 0 -46 18t-18 46z" />
<glyph unicode="K" d="M192 196q0 28 18 46t46 18h1536q28 0 46 -18t18 -46t-18 -46t-46 -18h-1536q-28 0 -46 18t-18 46zM192 452q0 28 18 46t46 18h1536q28 0 46 -18t18 -46t-18 -46t-46 -18h-1536q-28 0 -46 18t-18 46zM192 708q0 28 18 46t46 18h1536q28 0 46 -18t18 -46t-18 -46t-46 -18 h-1536q-28 0 -46 18t-18 46zM578 1228q18 180 146 308q80 80 192 120q12 4 23 4q25 0 45 -20t20 -43q0 -10 -4 -21q-25 -67 -25 -135q0 -41 9 -81q24 -107 104 -186q80 -78 186 -102q40 -9 80 -9l134 25q11 4 21 4q24 0 43.5 -20t19.5 -45q0 -11 -4 -23q-20 -57 -48 -104 h-168q32 28 36 36q-20 -1 -40 -1q-202 0 -350 149q-151 153 -151 361q0 15 1 31q-15 -11 -32 -28q-112 -112 -112 -272t112 -272l4 -4h-164q-81 125 -81 272q0 28 3 56z" />
<glyph unicode="L" d="M0 192q0 28 18 46t46 18h1920q28 0 46 -18t18 -46t-18 -46t-46 -18h-1920q-28 0 -46 18t-18 46zM0 448q0 28 18 46t46 18h1920q28 0 46 -18t18 -46t-18 -46t-46 -18h-1920q-28 0 -46 18t-18 46zM0 704q0 28 18 46t46 18h1920q28 0 46 -18t18 -46t-18 -46t-46 -18h-1920 q-28 0 -46 18t-18 46zM0 960q0 184 132 316t316 132q36 0 64 -4q89 125 224 192q138 68 288 68t288 -68q135 -67 224 -192q28 4 64 4q184 0 316 -132t132 -316q0 -18 -8 -64h-128q8 34 8 64q0 132 -94 226t-226 94q-64 0 -120 -24q-67 127 -188 204q-119 76 -268 76 t-268 -76q-121 -77 -188 -204q-56 24 -120 24q-132 0 -226 -94t-94 -226q0 -30 8 -64h-128q-8 46 -8 64z" />
<glyph unicode="M" d="M384 576q0 28 18 46t46 18h1152q28 0 46 -18t18 -46t-18 -46t-46 -18h-1152q-28 0 -46 18t-18 46zM384 832q0 28 18 46t46 18h1152q28 0 46 -18t18 -46t-18 -46t-46 -18h-1152q-28 0 -46 18t-18 46zM384 1088q0 28 18 46t46 18h1152q28 0 46 -18t18 -46t-18 -46t-46 -18 h-1152q-28 0 -46 18t-18 46zM384 1344q0 28 18 46t46 18h1152q28 0 46 -18t18 -46t-18 -46t-46 -18h-1152q-28 0 -46 18t-18 46z" />
<glyph unicode="N" d="M0 832q0 184 132 316t316 132q36 0 64 -4q89 125 224 192q138 68 288 68t288 -68q135 -67 224 -192q28 4 64 4q184 0 316 -132t132 -316t-132 -316t-316 -132q-85 0 -160 28q-180 -156 -416 -156t-416 156q-75 -28 -160 -28q-184 0 -316 132t-132 316zM128 832 q0 -132 94 -226t226 -94q100 0 184 60q156 -188 392 -188t392 188q84 -60 184 -60q132 0 226 94t94 226t-94 226t-226 94q-64 0 -120 -24q-67 127 -188 204q-119 76 -268 76t-268 -76q-121 -77 -188 -204q-56 24 -120 24q-132 0 -226 -94t-94 -226z" />
<glyph unicode="O" d="M0 1216q0 184 132 316t316 132q36 0 64 -4q89 125 224 192q138 68 288 68t288 -68q135 -67 224 -192q28 4 64 4q184 0 316 -132t132 -316t-132 -316t-316 -132q-85 0 -160 28q-155 -135 -372 -152l-44 -132l128 -128l-384 -384l128 384l-128 128l140 140 q-172 32 -300 144q-75 -28 -160 -28q-184 0 -316 132t-132 316zM128 1216q0 -132 94 -226t226 -94q100 0 184 60q156 -188 392 -188l88 12q183 31 304 176q84 -60 184 -60q132 0 226 94t94 226t-94 226t-226 94q-64 0 -120 -24q-67 127 -188 204q-119 76 -268 76t-268 -76 q-121 -77 -188 -204q-56 24 -120 24q-132 0 -226 -94t-94 -226z" />
<glyph unicode="P" d="M0 1216q0 184 132 316t316 132q36 0 64 -4q89 125 224 192q138 68 288 68t288 -68q135 -67 224 -192q28 4 64 4q184 0 316 -132t132 -316t-132 -316t-316 -132q-85 0 -160 28q-95 -83 -228 -124l52 160q93 54 152 124q84 -60 184 -60q132 0 226 94t94 226t-94 226 t-226 94q-64 0 -120 -24q-67 127 -188 204q-119 76 -268 76t-268 -76q-121 -77 -188 -204q-56 24 -120 24q-132 0 -226 -94t-94 -226t94 -226t226 -94q100 0 184 60q91 -112 240 -160l-100 -100q-98 41 -164 100q-75 -28 -160 -28q-184 0 -316 132t-132 316zM768 0l128 384 l-128 128l384 384l-128 -384l128 -128z" />
<glyph unicode="Q" d="M0 1088q0 184 132 316t316 132q36 0 64 -4q89 125 224 192q138 68 288 68t288 -68q135 -67 224 -192q28 4 64 4q184 0 316 -132t132 -316t-132 -316t-316 -132q-85 0 -160 28q-180 -156 -416 -156t-416 156q-75 -28 -160 -28q-184 0 -316 132t-132 316zM128 1088 q0 -132 94 -226t226 -94q100 0 184 60q156 -188 392 -188t392 188q84 -60 184 -60q132 0 226 94t94 226t-94 226t-226 94q-64 0 -120 -24q-67 127 -188 204q-119 76 -268 76t-268 -76q-121 -77 -188 -204q-56 24 -120 24q-132 0 -226 -94t-94 -226zM896 128q0 71 128 256 l32 -48q36 -55 64 -112q32 -66 32 -96q0 -52 -38 -90t-90 -38t-90 38t-38 90z" />
<glyph unicode="R" d="M0 1216q0 184 132 316t316 132q36 0 64 -4q89 125 224 192q138 68 288 68t288 -68q135 -67 224 -192q28 4 64 4q184 0 316 -132t132 -316t-132 -316t-316 -132q-85 0 -160 28q-180 -156 -416 -156t-416 156q-75 -28 -160 -28q-184 0 -316 132t-132 316zM128 1216 q0 -132 94 -226t226 -94q100 0 184 60q156 -188 392 -188t392 188q84 -60 184 -60q132 0 226 94t94 226t-94 226t-226 94q-64 0 -120 -24q-67 127 -188 204q-119 76 -268 76t-268 -76q-121 -77 -188 -204q-56 24 -120 24q-132 0 -226 -94t-94 -226zM384 384q0 71 128 256 l32 -48q36 -55 64 -112q32 -66 32 -96q0 -52 -38 -90t-90 -38t-90 38t-38 90zM900 0q0 71 128 256l32 -48q36 -55 64 -112q32 -66 32 -96q0 -52 -38 -90t-90 -38t-90 38t-38 90zM1408 128q0 71 128 256l32 -48q36 -55 64 -112q32 -66 32 -96q0 -52 -38 -90t-90 -38t-90 38 t-38 90z" />
<glyph unicode="S" d="M0 448q0 28 18 46t46 18h512q28 0 46 -18t18 -46t-18 -46t-46 -18h-512q-28 0 -46 18t-18 46zM0 704q0 28 18 46t46 18h256q28 0 46 -18t18 -46t-18 -46t-46 -18h-256q-28 0 -46 18t-18 46zM128 960q0 28 18 46t46 18h256q28 0 46 -18t18 -46t-18 -46t-46 -18h-256 q-28 0 -46 18t-18 46zM556 856q0 160 110 276q110 117 270 124q152 156 366 156t366 -156q160 -7 270 -124q110 -116 110 -276q0 -164 -116 -280t-284 -116q-36 0 -68 4q-128 -84 -278 -84t-278 84q-32 -4 -72 -4q-164 0 -280 116t-116 280zM684 856q0 -112 78 -190t190 -78 q54 0 96 16q113 -96 254 -96q142 0 250 96q47 -16 96 -16q112 0 192 78t80 190t-80 192t-192 80q-19 0 -36 -4q-115 160 -310 160t-310 -160q-17 4 -40 4q-112 0 -190 -80t-78 -192z" />
<glyph unicode="T" d="M0 830q0 26 18 44t46 18h512q28 0 46 -18t18 -44q0 -27 -18.5 -46.5t-45.5 -19.5h-512q-27 0 -45.5 19.5t-18.5 46.5zM0 1086q0 26 18 44t46 18h256q28 0 46 -18t18 -44q0 -27 -18.5 -46.5t-45.5 -19.5h-256q-27 0 -45.5 19.5t-18.5 46.5zM128 1342q0 26 18 44t46 18h256 q28 0 46 -18t18 -44q0 -27 -18.5 -46.5t-45.5 -19.5h-256q-27 0 -45.5 19.5t-18.5 46.5zM556 1240q0 159 110 274t270 122q152 156 366 156t366 -156q160 -7 270 -122t110 -274q0 -168 -116 -284t-284 -116q-36 0 -68 4q-128 -80 -278 -80t-278 80q-32 -4 -72 -4 q-164 0 -280 116t-116 284zM684 1240q0 -112 78 -192t190 -80q54 0 96 16q113 -92 254 -92t250 92q47 -16 96 -16q112 0 192 80t80 192t-80 190t-192 78h-36q-116 156 -310 156t-310 -156h-40q-112 0 -190 -78t-78 -190zM896 384q0 71 128 256l32 -48q36 -55 64 -112 q32 -66 32 -96q0 -52 -38 -90t-90 -38t-90 38t-38 90zM1408 128q0 71 128 256l32 -48q36 -55 64 -112q32 -66 32 -96q0 -52 -38 -90t-90 -38t-90 38t-38 90z" />
<glyph unicode="U" d="M0 1216q0 184 132 316t316 132q36 0 64 -4q89 125 224 192q138 68 288 68t288 -68q135 -67 224 -192q28 4 64 4q184 0 316 -132t132 -316t-132 -316t-316 -132q-85 0 -160 28q-180 -156 -416 -156t-416 156q-75 -28 -160 -28q-184 0 -316 132t-132 316zM128 1216 q0 -132 94 -226t226 -94q100 0 184 60q156 -188 392 -188t392 188q84 -60 184 -60q132 0 226 94t94 226t-94 226t-226 94q-64 0 -120 -24q-67 127 -188 204q-119 76 -268 76t-268 -76q-121 -77 -188 -204q-56 24 -120 24q-132 0 -226 -94t-94 -226zM712 102q8 30 32 42 l72 44q-4 19 -4 38t4 38l-72 40q-24 16 -32 44q-3 10 -3 19q0 17 9 35q14 26 42 34t56 -8l72 -44q28 28 64 40v84q0 28 22 50t50 22t50 -22t22 -50v-84q36 -12 64 -40l72 44q28 16 56 8t42 -34q9 -17 9 -35q0 -9 -3 -19q-8 -28 -32 -44l-72 -40q4 -19 4 -38t-4 -38l72 -44 q24 -12 32 -42q3 -11 3 -21q0 -18 -9 -33q-15 -25 -42.5 -32t-55.5 8l-72 40q-29 -24 -64 -36v-84q0 -31 -21.5 -51.5t-50.5 -20.5t-50.5 20.5t-21.5 51.5v84q-35 12 -64 36l-72 -40q-28 -15 -55.5 -8t-42.5 32q-9 15 -9 33q0 10 3 21zM952 226q0 -30 22 -50t50 -20t48 20 q24 20 24 50t-22 50t-50 20t-50 -20t-22 -50z" />
<glyph unicode="V" d="M0 1216q0 184 132 316t316 132q36 0 64 -4q89 125 224 192q138 68 288 68t288 -68q135 -67 224 -192q28 4 64 4q184 0 316 -132t132 -316t-132 -316t-316 -132q-69 0 -136 24q-8 32 -24 56q-18 38 -64 68q2 2 12 10.5t17.5 16.5t10.5 13q84 -60 184 -60q132 0 226 94 t94 226t-94 226t-226 94q-64 0 -120 -24q-67 127 -188 204q-119 76 -268 76t-268 -76q-121 -77 -188 -204q-56 24 -120 24q-132 0 -226 -94t-94 -226t94 -226t226 -94q100 0 184 60q0 -4 40 -40q-46 -30 -64 -68q-16 -24 -24 -56q-68 -24 -136 -24q-184 0 -316 132t-132 316 zM712 486q8 30 32 42l72 44q-4 19 -4 38t4 38l-72 40q-24 16 -32 44q-3 10 -3 19q0 17 9 35q14 26 42 34t56 -8l72 -44q28 28 64 40v84q0 28 22 50t50 22t50 -22t22 -50v-84q36 -12 64 -40l72 44q28 16 56 8t42 -34q9 -17 9 -35q0 -9 -3 -19q-8 -28 -32 -44l-72 -40 q4 -19 4 -38t-4 -38l72 -44q24 -12 32 -42q3 -11 3 -21q0 -18 -9 -33q-15 -25 -42.5 -32t-55.5 8l-72 40q-29 -24 -64 -36v-84q0 -31 -21.5 -51.5t-50.5 -20.5t-50.5 20.5t-21.5 51.5v84q-35 12 -64 36l-72 -40q-28 -15 -55.5 -8t-42.5 32q-9 15 -9 33q0 10 3 21zM952 610 q0 -30 22 -50t50 -20t48 20q24 20 24 50t-22 50t-50 20t-50 -20t-22 -50z" />
<glyph unicode="W" d="M0 1216q0 184 132 316t316 132q36 0 64 -4q89 125 224 192q138 68 288 68t288 -68q135 -67 224 -192q28 4 64 4q184 0 316 -132t132 -316t-132 -316t-316 -132q-85 0 -160 28q-180 -156 -416 -156t-416 156q-75 -28 -160 -28q-184 0 -316 132t-132 316zM122 412 q-2 8 -2 15q0 28 32 37l48 12q0 24 12 44l-36 36q-14 14 -14 28.5t14 29.5q15 16 31 16q14 0 29 -14l36 -36q19 7 44 12l12 48q9 31 35 31q8 0 17 -3q31 -9 31 -35q0 -8 -3 -17l-12 -48q10 -6 16 -12q9 -9 16 -20l48 16q6 1 12 1q30 0 40 -33q3 -9 3 -16q0 -27 -35 -36 l-48 -12q0 -24 -12 -44l36 -36q17 -15 17 -30q0 -14 -15 -28q-16 -16 -32 -16q-15 0 -30 14l-32 36q-23 -7 -44 -12l-16 -48q-6 -32 -34 -32q-7 0 -16 2q-33 8 -33 36q0 8 3 18l12 48q-15 7 -32 32l-48 -16q-6 -1 -11 -1q-31 0 -39 33zM128 1216q0 -132 94 -226t226 -94 q100 0 184 60q156 -188 392 -188t392 188q84 -60 184 -60q132 0 226 94t94 226t-94 226t-226 94q-64 0 -120 -24q-67 127 -188 204q-119 76 -268 76t-268 -76q-121 -77 -188 -204q-56 24 -120 24q-132 0 -226 -94t-94 -226zM294 436q15 -14 30 -14l30 14q14 14 14 27 q0 14 -16 29q-15 17 -30 17l-28 -15q-15 -15 -15 -29.5t15 -28.5zM712 102q8 30 32 42l72 44q-4 19 -4 38t4 38l-72 40q-24 16 -32 44q-3 10 -3 19q0 17 9 35q14 26 42 34t56 -8l72 -44q28 28 64 40v84q0 28 22 50t50 22t50 -22t22 -50v-84q36 -12 64 -40l72 44q28 16 56 8 t42 -34q14 -27 6 -54.5t-32 -43.5l-72 -40q4 -19 4 -38t-4 -38l72 -44q24 -12 32 -42t-6 -54q-15 -25 -42.5 -32t-55.5 8l-72 40q-29 -24 -64 -36v-84q0 -31 -21.5 -51.5t-50.5 -20.5t-50.5 20.5t-21.5 51.5v84q-35 12 -64 36l-72 -40q-28 -15 -55.5 -8t-42.5 32 q-9 15 -9 33q0 10 3 21zM952 226q0 -30 22 -50t50 -20t48 20q24 20 24 50t-22 50t-50 20t-50 -20t-22 -50zM1520 392q9 31 35 31q8 0 17 -3l48 -12q7 11 16 20q6 6 16 12l-12 48q-3 9 -3 17q0 26 31 35q9 3 17 3q26 0 35 -31l12 -48q25 -5 44 -12l36 36q15 14 29 14 q16 0 31 -16q14 -15 14 -29.5t-14 -28.5l-36 -36q12 -20 12 -44l48 -12q32 -10 32 -37q0 -7 -2 -15q-8 -33 -39 -33q-5 0 -11 1l-48 16q-17 -25 -32 -32l12 -48q3 -10 3 -18q0 -28 -33 -36q-9 -2 -16 -2q-27 0 -34 32l-16 48q-25 5 -44 12l-32 -36q-15 -14 -30 -14 q-16 0 -32 16q-15 14 -15 28q0 15 17 30l36 36q-12 19 -12 44l-48 12q-35 9 -35 36q0 7 3 16zM1694 308q15 -14 30 -14l30 14q14 14 14 27q0 14 -16 29q-15 17 -30 17l-28 -15q-15 -15 -15 -29.5t15 -28.5z" />
<glyph unicode="X" d="M0 1216q0 184 132 316t316 132q36 0 64 -4q89 125 224 192q138 68 288 68t288 -68q135 -67 224 -192q28 4 64 4q184 0 316 -132t132 -316t-132 -316t-316 -132q-85 0 -160 28q-180 -156 -416 -156t-416 156q-75 -28 -160 -28q-184 0 -316 132t-132 316zM128 1216 q0 -132 94 -226t226 -94q58 0 112 20l72 28l60 -52q143 -124 332 -124t332 124l60 52l72 -28q54 -20 112 -20q132 0 226 94t94 226t-94 226t-226 94q-27 0 -44 -4l-76 -12l-48 64q-151 208 -408 208t-408 -208l-48 -64l-76 12q-17 4 -44 4q-132 0 -226 -94t-94 -226z M256 512q0 52 38 90t90 38t88 -40q40 -36 40 -88t-38 -90t-90 -38t-90 38t-38 90zM512 0q0 52 38 90t90 38t88 -40q40 -36 40 -88t-38 -90t-90 -38t-90 38t-38 90zM896 384q0 52 38 90t90 38t88 -40q40 -36 40 -88t-38 -90t-90 -38t-90 38t-38 90zM1280 0q0 52 38 90t90 38 t88 -40q40 -36 40 -88t-38 -90t-90 -38t-90 38t-38 90zM1536 512q0 52 38 90t90 38t88 -40q40 -36 40 -88t-38 -90t-90 -38t-90 38t-38 90z" />
<glyph unicode="Y" d="M0 448q0 184 132 316t316 132q36 0 64 -4q3 8 8 8q-8 38 -8 60q0 148 104 252t252 104h28q148 184 384 184t384 -184h28q148 0 252 -104t104 -252q0 -136 -96 -240q96 -124 96 -272q0 -184 -132 -316t-316 -132q-85 0 -160 28q-180 -156 -416 -156t-416 156 q-75 -28 -160 -28q-184 0 -316 132t-132 316zM128 448q0 -132 94 -226t226 -94q100 0 184 60q156 -188 392 -188t392 188q84 -60 184 -60q132 0 226 94t94 226q0 107 -68 196q-47 59 -114.5 91.5t-137.5 32.5l-52 -4q-37 -7 -68 -20q-67 127 -188 204q-119 76 -268 76 q-212 0 -364 -156q-49 -53 -84 -112q0 -12 -8 -12q-56 24 -120 24q-132 0 -226 -94t-94 -226zM652 1032q168 120 372 120q150 0 288 -68q135 -67 224 -192q28 4 64 4q145 0 264 -88q56 68 56 152q0 96 -66 162t-162 66q-46 0 -88 -16q-44 88 -132 144q-89 56 -192 56 t-192 -56q-88 -56 -132 -144q-42 16 -88 16q-75 0 -134 -44q-57 -43 -82 -112z" />
<glyph unicode="Z" d="M0 868q0 184 132 316t316 132q36 0 64 -4q3 8 8 8q-8 38 -8 60q0 148 104 252t252 104h28q148 184 384 184t384 -184h28q148 0 252 -104t104 -252q0 -136 -96 -240q96 -120 96 -272q0 -184 -132 -316t-316 -132q-85 0 -160 28q-167 -147 -396 -152l-20 -40l128 -128 l-384 -256l128 256l-128 128l92 60q-148 40 -252 132q-75 -28 -160 -28q-184 0 -316 132t-132 316zM128 868q0 -132 94 -226t226 -94q100 0 184 60q151 -183 384 -188l96 12q183 31 304 176q84 -60 184 -60q132 0 226 94t94 226q0 107 -68 196q-47 59 -114.5 91.5 t-137.5 32.5l-52 -4q-37 -7 -68 -20q-67 127 -188 204q-119 76 -268 76q-212 0 -364 -156q-49 -49 -84 -112q-3 -7 -8 -12q-56 24 -120 24q-132 0 -226 -94t-94 -226zM652 1452q168 120 372 120q150 0 288 -68q135 -67 224 -192q28 4 64 4q144 0 264 -84q56 65 56 148 q0 96 -66 162t-162 66q-46 0 -88 -16q-44 92 -132 146t-192 54t-192 -54t-132 -146q-42 16 -88 16q-75 0 -134 -44q-57 -43 -82 -112z" />
<glyph unicode="&#x2000;" horiz-adv-x="960" />
<glyph unicode="&#x2001;" horiz-adv-x="1920" />
<glyph unicode="&#x2002;" horiz-adv-x="960" />
<glyph unicode="&#x2003;" horiz-adv-x="1920" />
<glyph unicode="&#x2004;" horiz-adv-x="640" />
<glyph unicode="&#x2005;" horiz-adv-x="480" />
<glyph unicode="&#x2006;" horiz-adv-x="320" />
<glyph unicode="&#x2007;" horiz-adv-x="320" />
<glyph unicode="&#x2008;" horiz-adv-x="240" />
<glyph unicode="&#x2009;" horiz-adv-x="384" />
<glyph unicode="&#x200a;" horiz-adv-x="106" />
<glyph unicode="&#x202f;" horiz-adv-x="384" />
<glyph unicode="&#x205f;" horiz-adv-x="480" />
<glyph unicode="&#xe000;" horiz-adv-x="500" d="M0 0z" />
</font>
</defs>
</svg>
